<svg xmlns="http://www.w3.org/2000/svg" width="22" height="22" viewBox="0 0 22 22" enable-background="new 0 0 22 22"><path fill="#88B14B" d="M15.992 19.15H6.008a1.77 1.77 0 0 1-1.767-1.768V4.618a1.77 1.77 0 0 1 1.767-1.769h9.984c.975 0 1.766.794 1.766 1.769v12.765c0 .974-.791 1.767-1.766 1.767zm-.033-14.532l-9.951.032.033 12.732 9.917-.032V4.618z"/><path fill="#88B14B" d="M14.096 7.515H7.904a.75.75 0 0 1 0-1.5h6.192a.75.75 0 0 1 0 1.5zM14.096 10.115H7.904a.75.75 0 0 1 0-1.5h6.192a.75.75 0 0 1 0 1.5zM14.096 12.716H7.904a.75.75 0 0 1 0-1.5h6.192a.75.75 0 0 1 0 1.5z"/></svg>