<svg xmlns="http://www.w3.org/2000/svg" width="22" height="22" viewBox="0 0 22 22" enable-background="new 0 0 22 22"><path fill="#3E3A39" d="M12.202 15.383H4.523a.75.75 0 0 1-.75-.75c0-2.969 2.059-5.385 4.589-5.385s4.589 2.416 4.589 5.385a.749.749 0 0 1-.749.75zm-6.871-1.5h6.064c-.279-1.784-1.533-3.135-3.032-3.135s-2.753 1.351-3.032 3.135z"/><path fill="#3E3A39" d="M8.363 10.693c-1.569 0-2.846-1.276-2.846-2.846s1.276-2.846 2.846-2.846 2.846 1.276 2.846 2.846-1.277 2.846-2.846 2.846zm0-4.191c-.742 0-1.346.604-1.346 1.346s.604 1.346 1.346 1.346a1.347 1.347 0 0 0 0-2.692zM15.668 21.785H.777a.75.75 0 0 1-.75-.75v-4.85c0-1.27 1-2.303 2.228-2.303H14.19c1.229 0 2.228 1.033 2.228 2.303v4.85a.75.75 0 0 1-.75.75zm-14.141-1.5h13.391v-4.1c0-.442-.326-.803-.728-.803H2.255c-.401 0-.728.36-.728.803v4.1z"/><g><path fill="#3E3A39" d="M15.668 18.033H.777a.75.75 0 0 1 0-1.5h14.891a.75.75 0 0 1 0 1.5z"/></g><g><path fill="#88B14B" d="M21.772 9.1l-2.177-2.264a4.126 4.126 0 0 0 .848-2.502 4.125 4.125 0 0 0-4.12-4.119c-2.272 0-4.121 1.848-4.121 4.119s1.849 4.121 4.121 4.121c.789 0 1.55-.221 2.21-.643l2.2 2.287a.72.72 0 1 0 1.039-.999zm-5.449-7.444a2.68 2.68 0 0 1 0 5.36 2.684 2.684 0 0 1-2.68-2.682 2.683 2.683 0 0 1 2.68-2.678z"/></g></svg>