<svg xmlns="http://www.w3.org/2000/svg" width="22" height="22" viewBox="0 0 22 22" enable-background="new 0 0 22 22"><path fill="#3B3C3C" d="M13.16 15.627H8.595l.04.223c.032.176.048.348.048.512s-.016.332-.048.514l-.04.221h4.564l-.04-.221c-.031-.184-.048-.35-.048-.514s.017-.334.048-.512l.041-.223z"/><path fill="#85AB4C" d="M10.506 9.445l3.025-2.934-.977-1.004-2.09 2.129-1.068-1.074-.888.889z"/><path fill="#85AB4C" d="M10.936 11.945c2.501 0 4.536-2.036 4.536-4.538S13.437 2.87 10.936 2.87c-2.502 0-4.537 2.035-4.537 4.537s2.035 4.538 4.537 4.538zm0-7.848a3.32 3.32 0 0 1 3.313 3.311 3.318 3.318 0 0 1-3.313 3.313 3.318 3.318 0 0 1-3.313-3.313 3.315 3.315 0 0 1 3.313-3.311z"/><path fill="#3B3C3C" d="M5.784 13.592a2.784 2.784 0 0 0-2.768 2.77 2.781 2.781 0 0 0 2.768 2.768 2.782 2.782 0 0 0 2.769-2.768 2.784 2.784 0 0 0-2.769-2.77zm1.205 3.246a1.29 1.29 0 0 1-1.205.822 1.29 1.29 0 0 1-1.206-.822c-.062-.156-.094-.318-.094-.477s.032-.32.094-.477a1.295 1.295 0 0 1 2.412.002 1.25 1.25 0 0 1-.001.952zM15.97 13.592c-1.294 0-2.431.92-2.705 2.184a2.766 2.766 0 0 0 0 1.172 2.783 2.783 0 0 0 2.705 2.182 2.783 2.783 0 0 0 2.77-2.768 2.787 2.787 0 0 0-2.77-2.77zm1.206 3.246c-.198.5-.672.822-1.207.822a1.29 1.29 0 0 1-1.205-.822 1.274 1.274 0 0 1-.094-.477 1.3 1.3 0 0 1 .094-.475 1.294 1.294 0 0 1 2.412-.002c.063.158.094.318.094.477s-.032.319-.094.477z"/><path fill="#3B3C3C" d="M5.671 7.453a7.18 7.18 0 0 0-1.725 2.51c-.188.09-.368.178-.543.26l-.086.039C1.261 11.223 0 12.029 0 16.361v.734h2.717l-.04-.221c-.032-.184-.048-.35-.048-.514s.017-.334.048-.512l.04-.223H1.482c.107-2.938.903-3.309 2.457-4.033l.131-.061c.254-.121.521-.246.799-.393l.253-.133.099-.267a5.698 5.698 0 0 1 .81-1.484 4.926 4.926 0 0 1-.36-1.801zM18.684 10.263l-.104-.051c-.169-.08-.345-.162-.524-.25a7.23 7.23 0 0 0-1.719-2.506l-.007-.006a4.98 4.98 0 0 1-.358 1.805c.342.457.617.955.809 1.486l.098.267.254.133c.268.141.527.264.772.379l.157.074c1.553.724 2.35 1.095 2.457 4.033h-1.352l.041.223c.031.174.049.348.049.512 0 .166-.016.332-.049.514l-.041.221H22v-.734c0-4.332-1.261-5.14-3.316-6.1z"/></svg>