<svg xmlns="http://www.w3.org/2000/svg" width="22" height="22" viewBox="0 0 22 22" enable-background="new 0 0 22 22"><path fill="#85AB4C" d="M16.878 13.347H5.483v-.75c0-3.706 2.556-6.721 5.697-6.721s5.697 3.015 5.697 6.721v.75zm-9.852-1.5h8.309c-.293-2.525-2.045-4.471-4.154-4.471-2.11 0-3.861 1.946-4.155 4.471z"/><path fill="#85AB4C" d="M11.181 7.306c-1.902 0-3.45-1.548-3.45-3.451S9.279.404 11.181.404s3.45 1.548 3.45 3.451-1.548 3.451-3.45 3.451zm0-5.403c-1.075 0-1.95.875-1.95 1.951s.875 1.951 1.95 1.951 1.95-.875 1.95-1.951-.875-1.951-1.95-1.951z"/><path fill="#3B3C3C" d="M20.594 21.597H1.406a.75.75 0 0 1-.75-.75v-6.25c0-1.517 1.191-2.75 2.654-2.75h15.379c1.464 0 2.654 1.233 2.654 2.75v6.25a.749.749 0 0 1-.749.75zm-18.438-1.5h17.688v-5.5c0-.689-.518-1.25-1.154-1.25H3.311c-.637 0-1.154.561-1.154 1.25v5.5z"/><g><path fill="#3B3C3C" d="M20.594 16.761H1.406a.75.75 0 0 1 0-1.5h19.188a.75.75 0 0 1 0 1.5z"/></g></svg>