<svg xmlns="http://www.w3.org/2000/svg" width="22" height="22" viewBox="0 0 22 22" enable-background="new 0 0 22 22"><g fill="#3C3C3C"><path d="M13.16 15.774H8.596l.039.223c.032.176.048.348.048.512s-.015.332-.048.514l-.039.221h4.564l-.04-.221c-.032-.184-.048-.35-.048-.514s.016-.334.048-.512l.04-.223zM5.785 13.739a2.785 2.785 0 0 0-2.769 2.77 2.782 2.782 0 0 0 2.769 2.768 2.783 2.783 0 0 0 2.705-2.182c.041-.195.063-.393.063-.586s-.022-.391-.063-.586a2.785 2.785 0 0 0-2.705-2.184zm1.205 3.246c-.198.5-.672.822-1.205.822a1.29 1.29 0 0 1-1.207-.822c-.062-.156-.094-.318-.094-.477s.032-.32.094-.477a1.296 1.296 0 0 1 2.412.002 1.25 1.25 0 0 1 0 .952zM15.971 13.739a2.784 2.784 0 0 0-2.769 2.77 2.782 2.782 0 0 0 2.769 2.768 2.782 2.782 0 0 0 2.769-2.768 2.786 2.786 0 0 0-2.769-2.77zm1.205 3.246c-.197.5-.672.822-1.206.822s-1.008-.322-1.206-.822a1.293 1.293 0 0 1-.093-.477c0-.156.032-.318.093-.475a1.292 1.292 0 1 1 2.412-.002c.063.158.094.318.094.477s-.032.319-.094.477z"/><path d="M5.672 7.601a7.169 7.169 0 0 0-1.726 2.51c-.187.09-.368.178-.543.26l-.085.039C1.262 11.37 0 12.177 0 16.509v.734h2.717l-.039-.221c-.033-.184-.049-.35-.049-.514s.017-.334.049-.512l.039-.223H1.482c.107-2.938.904-3.309 2.457-4.033l.131-.061c.254-.121.521-.246.799-.393l.254-.133.098-.266a5.727 5.727 0 0 1 .81-1.484 4.935 4.935 0 0 1-.359-1.802zM18.685 10.411l-.105-.051c-.17-.08-.346-.162-.525-.25a7.23 7.23 0 0 0-1.719-2.506l-.006-.005a4.98 4.98 0 0 1-.359 1.805c.342.457.617.955.81 1.486l.098.266.253.133c.269.141.527.264.773.379l.156.074c1.554.725 2.35 1.096 2.457 4.033h-1.351l.04.223c.032.174.049.348.049.512 0 .166-.016.332-.049.514l-.04.221H22v-.734c0-4.332-1.26-5.141-3.315-6.1z"/></g><path fill="#88B14B" d="M16.319 11.608l-2.177-2.262a4.13 4.13 0 0 0 .848-2.502 4.127 4.127 0 0 0-4.12-4.121c-2.272 0-4.121 1.85-4.121 4.121s1.849 4.119 4.121 4.119c.789 0 1.55-.221 2.21-.643l2.2 2.287a.72.72 0 1 0 1.039-.999zM10.87 4.167a2.68 2.68 0 0 1 2.679 2.678c0 1.479-1.201 2.68-2.679 2.68s-2.68-1.201-2.68-2.68a2.682 2.682 0 0 1 2.68-2.678z"/></svg>