<svg xmlns="http://www.w3.org/2000/svg" width="22" height="22" viewBox="0 0 22 22" enable-background="new 0 0 22 22"><path fill="#85AB4C" d="M4.31 6.417a2.2 2.2 0 0 1-1.129-.311 2.224 2.224 0 0 1-1.077-1.893c0-1.216.989-2.206 2.205-2.206s2.204.99 2.204 2.206c0 .622-.264 1.217-.724 1.631a2.203 2.203 0 0 1-1.479.573zm0-3.177a.974.974 0 0 0-.973.974c0 .343.179.656.478.835a.99.99 0 0 0 1.15-.119.973.973 0 0 0-.655-1.69zM5.501 19.992c-.384 0-.752-.133-1.045-.352a1.858 1.858 0 0 1-1.052.352 1.55 1.55 0 0 1-1.549-1.548l.006-3.166A1.55 1.55 0 0 1 0 13.762V8.969c0-1.322.728-2.111 1.946-2.111.021 0 .046.001.074.005a.79.79 0 0 1 .088-.005h8.465c.943 0 1.711.767 1.711 1.71s-.768 1.71-1.711 1.71H7.049v8.166a1.55 1.55 0 0 1-1.548 1.548zm-1.036-1.987c.294 0 .548.207.604.496.02.098.229.26.432.26a.317.317 0 0 0 .315-.316V9.662c0-.34.276-.616.616-.616h4.141a.478.478 0 1 0 0-.956h-8.4a.63.63 0 0 1-.198.013.526.526 0 0 1-.084-.013c-.341.008-.66.109-.66.879v4.792c0 .174.143.316.316.316s.314-.141.316-.314c0-.297.212-.547.492-.603 0 0 0-.002.002-.002h.007v-.002h.008l.001-.001h.005c.033-.005.071-.007.102-.009H2.518l.002.002h.017l.002.002H2.553a.003.003 0 0 0 .002.001H2.566l.002.002h.002c.001 0 .001-.002.002 0h.004l.002.002h.007l.002.001h.003c.002 0 .002.002.002 0h.003l.001.002h.008l.002.002h.001c.001 0 .001-.002.002 0h.002l.001.001h.007l.001.002h.005l.002.001h.005s-.002.004.002.002h.004l.001.002h.006l.001.001h.003l.002.002h.005l.001.002h.003l.002.001h.002c.001.002.001 0 .002 0l.002.002h.002l.002.002h.004l.001.001h.004l.001.002h.001c.001.002.001 0 .002 0l.001.002h.004v.001h.003l.001.002h.004l.001.001h.003l.002.002s0-.002.001 0h.001l.001.002h.002c-.001 0-.001-.002.002 0l.002.001h.001c.002 0 .002.002.002.002h.002l.002.002h.001a.615.615 0 0 1 .343.367l.001.001.001.002v.003l.001.002v.002l.001.001v.002l.001.002.001.001v.004l.001.001v.002l.001.001v.002l.001.002v.001l.001.002v.002l.001.001v.002l.001.002v.003h.001v.005h.001v.001l.001.002v.005h.001v.002l.001.001v.002l.001.002v.001c.01.045.016.092.016.138v.002l-.009 4.681c0 .173.142.316.316.316.214 0 .44-.177.457-.26a.613.613 0 0 1 .603-.497z"/><path fill="#85AB4C" d="M2.48 14.378a.616.616 0 0 1-.616-.616v-3.261a.616.616 0 0 1 1.232 0v3.261a.615.615 0 0 1-.616.616zM4.465 19.245a.616.616 0 0 1-.616-.616v-3.261a.616.616 0 1 1 1.232 0v3.261c0 .34-.276.616-.616.616z"/><g><path fill="#3B3C3C" d="M14.893 16.894h-3.837l.033.188c.026.146.04.292.04.428 0 .14-.014.281-.04.434l-.033.186h3.837l-.034-.186a2.562 2.562 0 0 1-.039-.434c0-.136.013-.278.039-.428l.034-.188zM17.255 15.184a2.337 2.337 0 0 0-2.327 2.325 2.334 2.334 0 0 0 2.327 2.329 2.338 2.338 0 0 0 2.328-2.329 2.337 2.337 0 0 0-2.328-2.325zm-1.014 1.925c.168-.42.566-.69 1.014-.69.449 0 .848.271 1.014.69.053.134.079.267.079.399 0 .134-.026.269-.079.401-.166.42-.564.691-1.014.691-.45 0-.848-.271-1.014-.691a1.097 1.097 0 0 1-.079-.401c.001-.13.027-.265.079-.399zM15.775 12.967l.003-.022c0-1.266-1.259-2.289-2.811-2.289-1.553 0-2.811 1.023-2.811 2.289 0 .008.003.016.003.022h5.616zM8.692 15.184c-.326 0-.638.077-.925.203v1.572c.195-.329.536-.54.925-.54.449 0 .848.271 1.014.69a1.059 1.059 0 0 1 0 .8c-.166.42-.564.691-1.014.691-.39 0-.73-.212-.925-.539v.382c0 .38-.114.731-.302 1.033.36.226.781.36 1.227.36a2.337 2.337 0 0 0 2.327-2.329 2.337 2.337 0 0 0-2.327-2.323z"/><path fill="#3B3C3C" d="M19.212 12.385l-.088-.042c-.143-.069-.29-.138-.44-.212a6.06 6.06 0 0 0-1.445-2.104l-.295-.281c-1.079-.858-2.115-1.277-3.062-1.428.01.085.026.17.026.258 0 .378-.106.73-.276 1.04.995.135 2.091.645 3.218 1.808l.047.059c.307.399.547.838.716 1.303l.081.223.214.112c.226.121.442.222.649.319l.132.063c1.305.61 1.975.921 2.065 3.392h-1.136l.033.188c.026.146.041.292.041.428 0 .142-.013.281-.041.434l-.033.186H22v-.619c0-3.641-1.06-4.323-2.788-5.127z"/></g></svg>