<svg xmlns="http://www.w3.org/2000/svg" width="22" height="22" viewBox="0 0 22 22" enable-background="new 0 0 22 22"><path fill="#3B3C3C" d="M3.024 19.628a.998.998 0 0 1-.979-1.201l.718-3.489a7.337 7.337 0 0 1-1.378-2.393 6.619 6.619 0 0 1-.358-2.146C1.026 5.973 5.5 2.372 11 2.372c5.499 0 9.974 3.601 9.974 8.027 0 4.428-4.475 8.029-9.974 8.029-1.048 0-2.079-.13-3.069-.385l-4.589 1.532a.969.969 0 0 1-.318.053zM11 4.372c-4.396 0-7.974 2.704-7.974 6.027 0 .507.084 1.012.251 1.499.252.737.685 1.427 1.286 2.048.229.237.327.573.261.896l-.47 2.288 3.231-1.079c.192-.063.398-.069.593-.013.903.259 1.853.391 2.822.391 4.396 0 7.974-2.705 7.974-6.029S15.396 4.372 11 4.372z"/><circle fill="#85AB4C" cx="6.962" cy="10.608" r="1.279"/><circle fill="#85AB4C" cx="11" cy="10.608" r="1.279"/><circle fill="#85AB4C" cx="15.037" cy="10.608" r="1.278"/></svg>