<svg xmlns="http://www.w3.org/2000/svg" width="22" height="22" viewBox="0 0 22 22" enable-background="new 0 0 22 22"><path fill="#3B3C3C" d="M12.672 14.882H4.993a.75.75 0 0 1-.75-.75c0-2.969 2.059-5.385 4.589-5.385 2.531 0 4.59 2.416 4.59 5.385a.75.75 0 0 1-.75.75zm-6.871-1.5h6.063c-.279-1.784-1.532-3.135-3.032-3.135-1.499 0-2.753 1.351-3.031 3.135z"/><path fill="#3B3C3C" d="M8.832 10.192c-1.569 0-2.846-1.276-2.846-2.846S7.262 4.5 8.832 4.5s2.846 1.276 2.846 2.846-1.277 2.846-2.846 2.846zm0-4.191c-.742 0-1.346.604-1.346 1.346a1.347 1.347 0 0 0 2.692-.001c0-.742-.604-1.345-1.346-1.345zM16.138 21.286H1.246a.75.75 0 0 1-.75-.75v-4.852c0-1.27 1-2.303 2.229-2.303H14.66c1.229 0 2.228 1.033 2.228 2.303v4.852a.75.75 0 0 1-.75.75zm-14.142-1.5h13.392v-4.102c0-.442-.326-.803-.728-.803H2.725c-.401 0-.729.36-.729.803v4.102z"/><g><path fill="#3B3C3C" d="M16.138 17.532H1.246a.75.75 0 0 1 0-1.5h14.892a.75.75 0 0 1 0 1.5z"/></g><g><path fill="#85AB4C" d="M16.537 7.288l3.026-2.934-.978-1.003-2.09 2.128-1.068-1.074-.888.889z"/><path fill="#85AB4C" d="M16.967 9.788c2.501 0 4.536-2.035 4.536-4.537S19.468.714 16.967.714s-4.536 2.035-4.536 4.537 2.035 4.537 4.536 4.537zm0-7.848a3.32 3.32 0 0 1 3.313 3.311c0 1.824-1.485 3.313-3.313 3.313s-3.313-1.488-3.313-3.313a3.315 3.315 0 0 1 3.313-3.311z"/></g></svg>