<svg xmlns="http://www.w3.org/2000/svg" width="22" height="22" viewBox="0 0 22 22" enable-background="new 0 0 22 22"><g fill="#3B3C3C"><path d="M13.291 14.493H8.589l.041.23a2.924 2.924 0 0 1 0 1.054l-.041.229h4.702l-.041-.229a2.933 2.933 0 0 1 0-1.054l.041-.23zM5.694 12.397a2.87 2.87 0 0 0-2.853 2.852 2.869 2.869 0 0 0 2.853 2.854 2.869 2.869 0 0 0 2.852-2.854 2.9 2.9 0 0 0-.065-.604 2.872 2.872 0 0 0-2.787-2.248zm-1.242 2.362a1.331 1.331 0 0 1 1.242-.848c.55 0 1.038.332 1.242.85a1.301 1.301 0 0 1-.001.98 1.331 1.331 0 0 1-1.242.846 1.328 1.328 0 0 1-1.242-.846c-.064-.162-.097-.328-.097-.492s.034-.328.098-.49zM16.187 12.397a2.867 2.867 0 0 0-2.852 2.852 2.867 2.867 0 0 0 2.852 2.854 2.867 2.867 0 0 0 2.852-2.854 2.869 2.869 0 0 0-2.852-2.852zm-1.244 2.364a1.33 1.33 0 0 1 1.242-.85 1.33 1.33 0 0 1 1.243.848c.063.164.097.326.097.49 0 .162-.033.328-.097.492-.204.514-.692.846-1.243.846s-1.038-.332-1.242-.846a1.337 1.337 0 0 1-.096-.492c.001-.16.033-.326.096-.488z"/><path d="M15.689 7.792l.058.072c.374.49.669 1.027.876 1.598l.101.273.261.137c.277.145.543.271.796.389l.161.078c1.6.746 2.42 1.127 2.532 4.154h-1.392l.041.23c.033.178.05.357.05.525 0 .172-.017.344-.05.529l-.041.229H22v-.758c0-4.458-1.299-5.292-3.416-6.281l-.108-.051c-.175-.084-.354-.168-.54-.258a7.417 7.417 0 0 0-1.771-2.582l-.36-.342c-5.188-4.123-9.583-.023-9.583-.023l-.363.345A7.41 7.41 0 0 0 4.065 8.66c-.193.094-.38.182-.56.268l-.088.038C1.299 9.957 0 10.789 0 15.249v.758h2.798l-.041-.229c-.033-.188-.049-.361-.049-.529s.017-.344.049-.525l.042-.23H1.526c.112-3.027.932-3.408 2.533-4.156l.134-.061c.261-.125.536-.254.823-.404l.26-.137.101-.273c.21-.584.51-1.127.892-1.617l.058-.074c0-.001 4.443-5.056 9.362.02z"/></g><path fill="#85AB4C" d="M14.373 9.683c0-.01.004-.02.004-.029 0-1.549-1.543-2.805-3.443-2.805-1.903 0-3.445 1.256-3.445 2.805 0 .01.004.02.004.029h6.88z"/></svg>