<svg xmlns="http://www.w3.org/2000/svg" width="22" height="22" viewBox="0 0 22 22" enable-background="new 0 0 22 22"><path fill="#3B3C3C" d="M20.225 2.678h-3.999v-.647a.773.773 0 0 0-.774-.773H6.549a.774.774 0 0 0-.775.773v.646h-4A.774.774 0 0 0 1 3.451v16.518c0 .428.346.773.773.773h18.451a.774.774 0 0 0 .775-.773V3.451a.772.772 0 0 0-.774-.773zm-12.903.129h7.355v2.967H7.322V2.807zM2.548 4.225h3.226v1.549H2.548V4.225zm16.903 14.968H2.548V7.322h16.903v11.871zm0-13.42h-3.226V4.225h3.226v1.548z"/><path fill="#579AD3" d="M11 8.402l1.172 3.606h3.791l-3.067 2.228 1.17 3.606L11 15.615l-3.068 2.227 1.172-3.606-3.069-2.228h3.792z"/></svg>