<svg xmlns="http://www.w3.org/2000/svg" width="22" height="22" viewBox="0 0 22 22" enable-background="new 0 0 22 22"><path fill="#3B3C3C" d="M20.227 2.678h-4v-.647a.772.772 0 0 0-.773-.773H6.549a.772.772 0 0 0-.773.773v.646h-4A.776.776 0 0 0 1 3.451v16.518c0 .428.348.773.775.773h18.451a.772.772 0 0 0 .773-.773V3.451a.77.77 0 0 0-.772-.773zm-12.903.129h7.354v2.967H7.324V2.807zM2.549 4.225h3.227v1.549H2.549V4.225zm16.903 14.968H2.549V7.322h16.903v11.871zm0-13.42h-3.226V4.225h3.226v1.548z"/><path fill="#4AB034" d="M9.05 16.781L5.972 14.07l1.686-1.896 2.159 1.894 4.371-4.605 1.841 1.746-5.216 5.498z"/></svg>