<svg xmlns="http://www.w3.org/2000/svg" width="22" height="22" viewBox="0 0 22 22" enable-background="new 0 0 22 22"><path fill="#3B3C3C" d="M20.226 2.678h-3.999v-.647a.773.773 0 0 0-.774-.773H6.549a.773.773 0 0 0-.774.773v.646h-4A.775.775 0 0 0 1 3.451v16.518c0 .428.347.773.774.773h18.451a.773.773 0 0 0 .774-.773V3.451a.772.772 0 0 0-.773-.773zm-12.903.129h7.354v2.967H7.323V2.807zM2.549 4.225h3.226v1.549H2.549V4.225zm16.902 14.968H2.549V7.322h16.902v11.871zm0-13.42h-3.225V4.225h3.225v1.548z"/><path fill="#DD5519" d="M9.049 16.781L5.971 14.07l1.687-1.896 2.158 1.894 4.372-4.605 1.841 1.746-5.216 5.498z"/></svg>