<?xml version="1.0" encoding="utf-8"?>
<!-- Generator: Adobe Illustrator 16.0.0, SVG Export Plug-In . SVG Version: 6.00 Build 0)  -->
<!DOCTYPE svg PUBLIC "-//W3C//DTD SVG 1.1//EN" "http://www.w3.org/Graphics/SVG/1.1/DTD/svg11.dtd">
<svg version="1.1" id="圖層_1" xmlns="http://www.w3.org/2000/svg" xmlns:xlink="http://www.w3.org/1999/xlink" x="0px" y="0px"
	 width="22px" height="22px" viewBox="0 0 22 22" enable-background="new 0 0 22 22" xml:space="preserve">
<g>
	<g>
		<path fill="#88B14B" d="M18.003,16.729l-3.253-3.385c0.818-1.07,1.267-2.388,1.267-3.739c0-3.396-2.764-6.157-6.159-6.157
			c-3.396,0-6.159,2.762-6.159,6.157s2.763,6.16,6.159,6.16c1.18,0,2.316-0.33,3.303-0.961l3.29,3.419
			c0.206,0.213,0.48,0.33,0.775,0.33c0.281,0,0.545-0.108,0.746-0.301C18.4,17.84,18.414,17.157,18.003,16.729z M9.857,5.602
			c2.209,0,4.003,1.796,4.003,4.003c0,2.21-1.794,4.009-4.003,4.009c-2.208,0-4.005-1.799-4.005-4.009
			C5.853,7.397,7.649,5.602,9.857,5.602z"/>
	</g>
</g>
</svg>
